# xmcd
#
# Track frame offsets:
#	182
#	14690
#	31510
#	46240
#	66840
#	91490
#	108872
#	130272
#	158690
#	175667
#	192342
#	207590
#	223825
#	259290
#
# Disc length: 3708 seconds
#
# Revision: 17
# Processed by: cddbd v1.5.2PL0 Copyright (c) Steve Scherf et al.
# Submitted via: EZCDAudioConverter 7.2.1.1
#
DISCID=c40e7a0e
DTITLE=Eric Clapton - Unplugged
DYEAR=1992
DGENRE=Blues
TTITLE0=Signe (live)
TTITLE1=Before You Accuse Me (live)
TTITLE2=Hey Hey (live)
TTITLE3=Tears in Heaven (live)
TTITLE4=Lonely Stranger (live)
TTITLE5=Nobody Knows You When You're Down and Out (live)
TTITLE6=Layla (live)
TTITLE7=Running on Faith (live)
TTITLE8=Walkin' Blues (live)
TTITLE9=Alberta (live)
TTITLE10=San Francisco Bay Blues (live)
TTITLE11=Malted Milk (live)
TTITLE12=Old Love (live)
TTITLE13=Rollin' and Tumblin' (live)
EXTD=
EXTT0=
EXTT1=
EXTT2=
EXTT3=
EXTT4=
EXTT5=
EXTT6=
EXTT7=
EXTT8=
EXTT9=
EXTT10=
EXTT11=
EXTT12=
EXTT13=
PLAYORDER=
